<svg width="32" height="32" viewBox="0 0 32 32" fill="none" xmlns="http://www.w3.org/2000/svg">
  <rect width="32" height="32" rx="8" fill="url(#gradient)"/>
  
  <!-- Auction Hammer -->
  <path d="M8 6L12 10L10 12L6 8L8 6Z" fill="white" fill-opacity="0.9"/>
  <path d="M10 8L14 12L12 14L8 10L10 8Z" fill="white" fill-opacity="0.7"/>
  
  <!-- Auction Stand/Base -->
  <rect x="4" y="20" width="24" height="2" rx="1" fill="white" fill-opacity="0.9"/>
  <rect x="6" y="18" width="20" height="2" rx="1" fill="white" fill-opacity="0.7"/>
  
  <!-- Auction Block -->
  <rect x="12" y="14" width="8" height="6" rx="1" fill="white" fill-opacity="0.8"/>
  
  <!-- Auction Number -->
  <text x="16" y="19" text-anchor="middle" fill="url(#gradient2)" font-family="Arial, sans-serif" font-size="6" font-weight="bold">A</text>
  
  <!-- Decorative Elements -->
  <circle cx="8" cy="8" r="1" fill="white" fill-opacity="0.6"/>
  <circle cx="24" cy="8" r="1" fill="white" fill-opacity="0.6"/>
  <circle cx="8" cy="24" r="1" fill="white" fill-opacity="0.6"/>
  <circle cx="24" cy="24" r="1" fill="white" fill-opacity="0.6"/>
  
  <defs>
    <linearGradient id="gradient" x1="0" y1="0" x2="32" y2="32" gradientUnits="userSpaceOnUse">
      <stop stop-color="#3b82f6"/>
      <stop offset="0.5" stop-color="#1e40af"/>
      <stop offset="1" stop-color="#1e3a8a"/>
    </linearGradient>
    <linearGradient id="gradient2" x1="12" y1="14" x2="20" y2="20" gradientUnits="userSpaceOnUse">
      <stop stop-color="#1e40af"/>
      <stop offset="1" stop-color="#3b82f6"/>
    </linearGradient>
  </defs>
</svg>
