<svg width="40" height="40" viewBox="0 0 40 40" fill="none" xmlns="http://www.w3.org/2000/svg">
  <rect width="40" height="40" rx="10" fill="url(#gradient)"/>
  
  <!-- Auction Hammer -->
  <path d="M10 8L15 13L13 15L8 10L10 8Z" fill="white" fill-opacity="0.9"/>
  <path d="M12 10L17 15L15 17L10 12L12 10Z" fill="white" fill-opacity="0.7"/>
  
  <!-- Auction Stand/Base -->
  <rect x="5" y="25" width="30" height="3" rx="1.5" fill="white" fill-opacity="0.9"/>
  <rect x="7" y="22" width="26" height="3" rx="1.5" fill="white" fill-opacity="0.7"/>
  
  <!-- Auction Block -->
  <rect x="15" y="17" width="10" height="8" rx="1" fill="white" fill-opacity="0.8"/>
  
  <!-- Auction Number -->
  <text x="20" y="23" text-anchor="middle" fill="url(#gradient2)" font-family="Arial, sans-serif" font-size="8" font-weight="bold">A</text>
  
  <!-- Decorative Elements -->
  <circle cx="10" cy="10" r="1.5" fill="white" fill-opacity="0.6"/>
  <circle cx="30" cy="10" r="1.5" fill="white" fill-opacity="0.6"/>
  <circle cx="10" cy="30" r="1.5" fill="white" fill-opacity="0.6"/>
  <circle cx="30" cy="30" r="1.5" fill="white" fill-opacity="0.6"/>
  
  <defs>
    <linearGradient id="gradient" x1="0" y1="0" x2="40" y2="40" gradientUnits="userSpaceOnUse">
      <stop stop-color="#3b82f6"/>
      <stop offset="0.5" stop-color="#1e40af"/>
      <stop offset="1" stop-color="#1e3a8a"/>
    </linearGradient>
    <linearGradient id="gradient2" x1="15" y1="17" x2="25" y2="25" gradientUnits="userSpaceOnUse">
      <stop stop-color="#1e40af"/>
      <stop offset="1" stop-color="#3b82f6"/>
    </linearGradient>
  </defs>
</svg>
